<?xml version="1.0" encoding="UTF-8" standalone="no"?>
<svg
   width="16"
   height="16"
   version="1.1"
   viewBox="0 0 16 16"
   id="svg1"
   sodipodi:docname="icon_ft_gdscript.svg"
   inkscape:version="1.4 (86a8ad7, 2024-10-11)"
   xmlns:inkscape="http://www.inkscape.org/namespaces/inkscape"
   xmlns:sodipodi="http://sodipodi.sourceforge.net/DTD/sodipodi-0.dtd"
   xmlns="http://www.w3.org/2000/svg"
   xmlns:svg="http://www.w3.org/2000/svg">
  <defs
     id="defs1" />
  <sodipodi:namedview
     id="namedview1"
     pagecolor="#505050"
     bordercolor="#eeeeee"
     borderopacity="1"
     inkscape:showpageshadow="0"
     inkscape:pageopacity="0"
     inkscape:pagecheckerboard="0"
     inkscape:deskcolor="#d1d1d1"
     showgrid="true"
     inkscape:zoom="22.627417"
     inkscape:cx="5.6568542"
     inkscape:cy="13.899068"
     inkscape:window-width="1920"
     inkscape:window-height="1009"
     inkscape:window-x="-8"
     inkscape:window-y="-8"
     inkscape:window-maximized="1"
     inkscape:current-layer="svg1">
    <inkscape:grid
       id="grid1"
       units="px"
       originx="0"
       originy="0"
       spacingx="1"
       spacingy="1"
       empcolor="#0099e5"
       empopacity="0.30196078"
       color="#0099e5"
       opacity="0.14901961"
       empspacing="5"
       enabled="true"
       visible="true" />
  </sodipodi:namedview>
  <g
     transform="translate(0 -1036.4)"
     id="g1" />
  <path
     d="m 6,1046.4 c -1.6569,0 -3,1.3431 -3,3 0,1.6569 1.3431,3 3,3 h 1 v -2.9954 L 5.9952992,1049.3906 6,1050.4 c 0,0 -1,-0.3216 -1,-1 0,-0.5523 0.44772,-1 1,-1 h 1 v -2 z m 1,-9 -0.56445,2.2578 c -0.23643,0.076 -0.46689,0.1692 -0.68945,0.2793 l -1.9883,-1.1933 -1.4141,1.414 1.1953,1.9942 c -0.11191,0.2211 -0.20723,0.4502 -0.28516,0.6855 l -2.2539,0.5625 v 2 h 5.2715 c -0.17677,-0.3037 -0.27041,-0.6486 -0.27148,-1 9.6e-6,-1.1046 0.89543,-2 2,-2 1.10457,0 2,0.8954 2,2 -4.817e-4,0.3512 -0.093442,0.6961 -0.26953,1 h 5.2695 v -2 l -2.2578,-0.5645 c -0.07594,-0.2357 -0.1693,-0.4655 -0.2793,-0.6875 l 1.1934,-1.9902 -1.4141,-1.414 -1.9941,1.1953 c -0.22113,-0.1119 -0.45028,-0.2073 -0.68555,-0.2852 L 8.99998,1037.4 Z"
     fill="#e0e0e0"
     id="path1"
     sodipodi:nodetypes="sssccccssccscccccccccccscccccccccccc"
     transform="translate(0,-1036.4)" />
  <path
     d="m 9.99671,16.00185 c 1.6569,0 3,-1.3431 3,-3 0,-1.6569 -1.3431,-3 -3,-3 h -1 v 4.019614 l 1.004701,-0.01331 -0.0047,-2.006301 c 0,0 1.005524,0.01224 1,1 -0.0031,0.552291 -0.44772,1 -1,1 h -1 v 2 z"
     style="fill:#e0e0e0"
     id="path1-8"
     sodipodi:nodetypes="sssccccssccs" />
</svg>
