<?xml version="1.0" encoding="UTF-8" standalone="no"?>
<svg
   height="16"
   viewBox="0 0 16 16"
   width="16"
   version="1.1"
   id="svg4"
   sodipodi:docname="icon_add_folder.svg"
   inkscape:version="1.1.1 (3bf5ae0d25, 2021-09-20)"
   xmlns:inkscape="http://www.inkscape.org/namespaces/inkscape"
   xmlns:sodipodi="http://sodipodi.sourceforge.net/DTD/sodipodi-0.dtd"
   xmlns="http://www.w3.org/2000/svg"
   xmlns:svg="http://www.w3.org/2000/svg">
  <defs
     id="defs8" />
  <sodipodi:namedview
     id="namedview6"
     pagecolor="#505050"
     bordercolor="#eeeeee"
     borderopacity="1"
     inkscape:pageshadow="0"
     inkscape:pageopacity="0"
     inkscape:pagecheckerboard="0"
     showgrid="true"
     inkscape:zoom="32"
     inkscape:cx="5.796875"
     inkscape:cy="9.671875"
     inkscape:window-width="1920"
     inkscape:window-height="1017"
     inkscape:window-x="-8"
     inkscape:window-y="-8"
     inkscape:window-maximized="1"
     inkscape:current-layer="svg4"
     inkscape:snap-grids="true"
     inkscape:snap-global="true">
    <inkscape:grid
       type="xygrid"
       id="grid2783" />
  </sodipodi:namedview>
  <path
     d="M 2,2 C 1.4477153,2 1,2.4477153 1,3 v 2 6 2 c 0,0.552285 0.4477153,1 1,1 h 8 V 13 H 8 V 9 h 2 V 7 h 2 1 1 c 0,0 -6.29e-4,-0.040795 -2.53e-4,-1.0311792 3.7e-4,-0.97325 0.01588,-0.9559759 -0.993736,-0.9592054 L 10,5 C 9.4477181,4.9982334 9,4.5522847 9,4 V 3 C 9,2.4477153 8.5522847,2 8,2 Z"
     fill="#e0e0e0"
     id="path2"
     sodipodi:nodetypes="ssccsscccccccccsssssss" />
  <path
     d="m 11,8 v 2 H 9.0000003 v 2 H 11 v 2 h 2 v -2 h 2 V 10 H 13 V 8 Z"
     fill="#84ffb1"
     id="path4" />
</svg>
