<?xml version="1.0" encoding="UTF-8" standalone="no"?>
<!-- Uploaded to: SVG Repo, www.svgrepo.com, Generator: SVG Repo Mixer Tools -->

<svg
   fill="#000000"
   version="1.1"
   id="Capa_1"
   width="15.861216"
   height="15.865483"
   viewBox="0 0 11.77382 11.776988"
   xml:space="preserve"
   sodipodi:docname="min_max.svg"
   inkscape:version="1.4 (86a8ad7, 2024-10-11)"
   xmlns:inkscape="http://www.inkscape.org/namespaces/inkscape"
   xmlns:sodipodi="http://sodipodi.sourceforge.net/DTD/sodipodi-0.dtd"
   xmlns="http://www.w3.org/2000/svg"
   xmlns:svg="http://www.w3.org/2000/svg"><defs
   id="defs4" /><sodipodi:namedview
   id="namedview4"
   pagecolor="#505050"
   bordercolor="#eeeeee"
   borderopacity="1"
   inkscape:showpageshadow="0"
   inkscape:pageopacity="0"
   inkscape:pagecheckerboard="0"
   inkscape:deskcolor="#d1d1d1"
   inkscape:zoom="32.28"
   inkscape:cx="5.2819083"
   inkscape:cy="6.4900868"
   inkscape:window-width="1920"
   inkscape:window-height="1009"
   inkscape:window-x="-8"
   inkscape:window-y="-8"
   inkscape:window-maximized="1"
   inkscape:current-layer="g4" />
<g
   id="g4"
   transform="translate(-582.06818,-576.07901)">
	<g
   id="g3"
   transform="matrix(0.01812314,0,0,0.01850096,582.52782,576.52018)">
		<g
   id="g2">
			<path
   d="m 58.64,587.356 h 396.985 c 32.059,0 58.141,-26.082 58.141,-58.141 v -23.883 h 21.436 c 32.059,0 58.141,-26.082 58.141,-58.141 V 64.625 c 0,-32.059 -26.082,-58.14 -58.141,-58.14 H 138.217 c -32.059,0 -58.14,26.082 -58.14,58.14 V 88.509 H 58.64 c -32.058,0 -58.14,26.082 -58.14,58.14 v 382.567 c 0,32.058 26.082,58.14 58.14,58.14 z m 412.286,-82.023 v 23.883 c 0,8.451 -6.852,15.301 -15.301,15.301 H 58.64 c -8.45,0 -15.3,-6.85 -15.3,-15.301 V 239.248 h 36.736 42.84 348.009 v 223.245 42.84 z M 455.625,131.349 c 8.449,0 15.301,6.85 15.301,15.3 v 49.759 H 122.917 80.077 43.34 v -49.759 c 0,-8.45 6.85,-15.3 15.3,-15.3 h 21.437 42.84 z M 122.917,64.625 c 0,-8.45 6.85,-15.3 15.3,-15.3 h 396.984 c 8.449,0 15.299,6.85 15.299,15.3 v 382.568 c 0,8.449 -6.85,15.299 -15.299,15.299 H 513.765 V 146.649 c 0,-32.058 -26.082,-58.14 -58.141,-58.14 H 122.917 Z"
   id="path1"
   style="fill:#ffffff" />
			<path
   d="M 455.625,587.856 H 58.64 C 26.306,587.856 0,561.551 0,529.216 V 146.649 C 0,114.315 26.306,88.009 58.64,88.009 H 79.577 V 64.625 c 0,-32.334 26.306,-58.64 58.64,-58.64 h 396.984 c 32.335,0 58.641,26.306 58.641,58.64 v 382.567 c 0,32.335 -26.306,58.641 -58.641,58.641 h -20.936 v 23.383 c 10e-4,32.335 -26.305,58.64 -58.64,58.64 z M 58.64,89.009 C 26.857,89.009 1,114.866 1,146.649 v 382.567 c 0,31.783 25.857,57.641 57.64,57.641 h 396.985 c 31.783,0 57.641,-25.857 57.641,-57.641 v -24.383 h 21.936 c 31.783,0 57.641,-25.857 57.641,-57.641 V 64.625 c 0,-31.783 -25.857,-57.64 -57.641,-57.64 H 138.217 c -31.783,0 -57.64,25.857 -57.64,57.64 V 89.009 Z M 455.625,545.017 H 58.64 c -8.712,0 -15.8,-7.088 -15.8,-15.801 V 238.748 h 428.585 v 290.468 c 10e-4,8.713 -7.087,15.801 -15.8,15.801 z M 43.84,239.748 v 289.468 c 0,8.161 6.639,14.801 14.8,14.801 h 396.985 c 8.161,0 14.801,-6.64 14.801,-14.801 V 239.748 Z M 535.201,462.991 H 513.265 V 146.649 c 0,-31.783 -25.857,-57.64 -57.641,-57.64 H 122.417 V 64.625 c 0,-8.712 7.088,-15.8 15.8,-15.8 h 396.984 c 8.712,0 15.799,7.088 15.799,15.8 v 382.568 c 0,8.711 -7.087,15.798 -15.799,15.798 z m -20.935,-1 h 20.936 c 8.16,0 14.799,-6.639 14.799,-14.799 V 64.625 c 0,-8.161 -6.639,-14.8 -14.799,-14.8 H 138.217 c -8.161,0 -14.8,6.639 -14.8,14.8 V 88.01 h 332.208 c 32.335,0 58.641,26.306 58.641,58.64 z M 471.426,196.908 H 42.84 v -50.259 c 0,-8.712 7.088,-15.8 15.8,-15.8 h 396.985 c 8.713,0 15.801,7.088 15.801,15.8 z m -427.586,-1 h 426.585 v -49.259 c 0,-8.161 -6.64,-14.8 -14.801,-14.8 H 58.64 c -8.161,0 -14.8,6.639 -14.8,14.8 z"
   id="path2" />
		</g>
	</g>
</g>
</svg>
