<?xml version="1.0" encoding="UTF-8" standalone="no"?>
<svg
   width="96"
   height="96"
   fill="none"
   stroke="currentColor"
   stroke-width="2"
   stroke-linecap="round"
   stroke-linejoin="round"
   version="1.1"
   id="svg9"
   sodipodi:docname="settings.svg"
   inkscape:version="1.1.1 (3bf5ae0d25, 2021-09-20)"
   xmlns:inkscape="http://www.inkscape.org/namespaces/inkscape"
   xmlns:sodipodi="http://sodipodi.sourceforge.net/DTD/sodipodi-0.dtd"
   xmlns="http://www.w3.org/2000/svg"
   xmlns:svg="http://www.w3.org/2000/svg">
  <defs
     id="defs13" />
  <sodipodi:namedview
     id="namedview11"
     pagecolor="#505050"
     bordercolor="#eeeeee"
     borderopacity="1"
     inkscape:pageshadow="0"
     inkscape:pageopacity="0"
     inkscape:pagecheckerboard="0"
     showgrid="false"
     inkscape:zoom="4.3333333"
     inkscape:cx="92.653846"
     inkscape:cy="68.884615"
     inkscape:window-width="1920"
     inkscape:window-height="1017"
     inkscape:window-x="-8"
     inkscape:window-y="-8"
     inkscape:window-maximized="1"
     inkscape:current-layer="svg9" />
  <rect
     id="backgroundrect"
     width="100%"
     height="100%"
     x="72"
     y="72"
     fill="none"
     stroke="none" />
  <g
     class="currentLayer"
     id="g7"
     transform="matrix(3.5096154,0,0,3.5096154,6.2307695,6.2307695)">
    <title
       id="title3">Layer 1</title>
    <path
       d="m 19.4,15 a 1.65,1.65 0 0 0 0.33,1.82 l 0.06,0.06 a 2,2 0 0 1 0,2.83 2,2 0 0 1 -2.83,0 L 16.9,19.65 a 1.65,1.65 0 0 0 -1.82,-0.33 1.65,1.65 0 0 0 -1,1.51 V 21 a 2,2 0 0 1 -2,2 2,2 0 0 1 -2,-2 V 20.91 A 1.65,1.65 0 0 0 9,19.4 1.65,1.65 0 0 0 7.18,19.73 l -0.06,0.06 a 2,2 0 0 1 -2.83,0 2,2 0 0 1 0,-2.83 L 4.35,16.9 a 1.65,1.65 0 0 0 0.33,-1.82 1.65,1.65 0 0 0 -1.51,-1 H 3 a 2,2 0 0 1 -2,-2 2,2 0 0 1 2,-2 H 3.09 A 1.65,1.65 0 0 0 4.6,9 1.65,1.65 0 0 0 4.27,7.18 L 4.21,7.12 a 2,2 0 0 1 0,-2.83 2,2 0 0 1 2.83,0 L 7.1,4.35 A 1.65,1.65 0 0 0 8.92,4.68 H 9 A 1.65,1.65 0 0 0 10,3.17 V 3 a 2,2 0 0 1 2,-2 2,2 0 0 1 2,2 v 0.09 a 1.65,1.65 0 0 0 1,1.51 1.65,1.65 0 0 0 1.82,-0.33 l 0.06,-0.06 a 2,2 0 0 1 2.83,0 2,2 0 0 1 0,2.83 L 19.65,7.1 A 1.65,1.65 0 0 0 19.32,8.92 V 9 a 1.65,1.65 0 0 0 1.51,1 H 21 a 2,2 0 0 1 2,2 2,2 0 0 1 -2,2 h -0.09 a 1.65,1.65 0 0 0 -1.51,1 z"
       id="svg_2"
       class="selected"
       stroke="#ffffff"
       stroke-opacity="1" />
    <circle
       cx="12"
       cy="12"
       r="3"
       id="svg_1"
       class=""
       stroke="#ffffff"
       stroke-opacity="1" />
  </g>
</svg>
